<svg version="1.2" xmlns="http://www.w3.org/2000/svg" viewBox="0 0 2025 1320" width="150" height="98">
	<title>vecteezy_toucan-bird-mascot-vector-illustration_7923901-ai</title>
	<defs>
		<linearGradient id="g1" x1="1220.1" y1="75.5" x2="1824.7" y2="100.8" gradientUnits="userSpaceOnUse">
			<stop offset="0" stop-color="#f99010"/>
			<stop offset="1" stop-color="#f9bb10"/>
		</linearGradient>
		<linearGradient id="g2" x1="1130.4" y1="93.6" x2="1772.4" y2="97.4" gradientUnits="userSpaceOnUse">
			<stop offset="0" stop-color="#f1cf0f"/>
			<stop offset="1" stop-color="#f9bb10"/>
		</linearGradient>
		<linearGradient id="g3" x1="1124.1" y1="486.5" x2="1776.1" y2="486.5" gradientUnits="userSpaceOnUse">
			<stop offset="0" stop-color="#f8630b"/>
			<stop offset="1" stop-color="#f98c0b"/>
		</linearGradient>
		<linearGradient id="g4" x1="1724.9" y1="318.2" x2="1927.7" y2="281.2" gradientUnits="userSpaceOnUse">
			<stop offset="0" stop-color="#444e55"/>
			<stop offset="1" stop-color="#6b747a"/>
		</linearGradient>
	</defs>
	<style>
		.s0 { fill: #313a43 } 
		.s1 { fill: url(#g1) } 
		.s2 { fill: url(#g2) } 
		.s3 { fill: url(#g3) } 
		.s4 { fill: #414b52 } 
		.s5 { fill: url(#g4) } 
	</style>
	<g id="Layer 1">
		<g id="Layer_1">
			<g id=" 2639479736320">
				<g id="&lt;Group&gt;">
					<path id="&lt;Path&gt;" class="s0" d="m1008 97.2v92.2c-171.1 0-309.7 138.6-309.7 309.7 0 171 138.6 309.7 309.7 309.7h116.7c103.8 0 188.7 84.9 188.7 188.7v188.8h-377.5c-270.9-35.9-472.4-272.6-472.4-544.5 0-300.8 243.8-544.6 544.5-544.6z"/>
					<path id="&lt;Path&gt;" class="s1" d="m1034.1 97.2h209.4c421.9 0 739.5 214.5 739.5 662-151.7-74.5-186.2-78.3-347.7-78.3h-463.2c-76 0-138-62-138-138.1v-445.6z"/>
					<path id="&lt;Path&gt;" class="s2" d="m1034.1 97.2h209.4c421.9 0 739.5 214.5 739.5 662 0-307.9-263-533.1-573.3-533.1h-375.6v-128.9z"/>
					<path id="&lt;Path&gt;" class="s3" d="m1983 759.2c-151.7-74.5-186.2-78.3-347.7-78.3h-463.2c-76 0-138-62-138-138.1v-56.3h375.6c310.3 0 513.1 133.6 573.3 272.7z"/>
					<path id="&lt;Path&gt;" class="s4" d="m1620.6 680.9c-82.5-184.5 60.5-365.8 248.8-315.4 72.4 101.6 113.6 232.6 113.6 393.7-151.7-74.5-186.2-78.3-347.7-78.3z"/>
					<path id="&lt;Path&gt;" class="s5" d="m1754.8 363.2c34.8-8.6 73.6-8.6 114.6 2.3 72.4 101.6 113.6 232.6 113.6 393.7 0 0-39.8-249.7-228.2-396z"/>
					<path id="&lt;Path&gt;" class="s0" d="m1620.6 680.9c-27.4-61.4-29.9-122.4-14.1-174.7 199.3 42.1 330.1 146 376.5 253-151.7-74.5-186.2-78.3-347.7-78.3h-14.7z"/>
					<path id="&lt;Path&gt;" class="s0" d="m848.7 302.4c1.6 9.2 7.1 17.7 15.9 22.8 15.6 9.1 35.7 3.7 44.7-12 9.1-15.6 3.7-35.7-12-44.7q-1.3-0.8-2.6-1.4c18.4-4.8 38.7-2.6 56.5 7.6 35.9 20.7 48.1 66.6 27.4 102.5-20.7 35.8-66.5 48.1-102.4 27.4-35.8-20.7-48.1-66.4-27.5-102.2z"/>
					<path id="&lt;Path&gt;" class="s0" d="m529.5 1186.3c-290.1 2.8-525.5-243.2-507.3-535.5 30.5 56.6 76.6 105.7 136.4 140.2 16.3 9.4 33 17.4 50.1 24-48.7-77.4-76.8-169.1-76.8-267.3 0-197.7 114-368.8 279.7-451.3-33.7 54.7-53.2 119.2-53.2 188.2 0 131.2 70.4 246 175.6 308.6 16.2 226 192.9 409.4 416 436.2l58 156.9h-478.5z"/>
				</g>
				<g id="&lt;Group&gt;">
				</g>
			</g>
		</g>
	</g>
</svg>